<svg xmlns="http://www.w3.org/2000/svg" width="24" height="24" viewBox="0 0 24 24">
    <g fill="none" fill-rule="evenodd">
        <path d="M0 0h24v24H0z"/>
        <path fill="#999" d="M13.89 8.468a1.606 1.606 0 0 1-1.044.398c-.398 0-.746-.15-1.045-.398a1.225 1.225 0 0 1-.448-.946c0-.398.15-.696.448-.995a1.607 1.607 0 0 1 1.045-.398c.398 0 .746.15 1.045.398.299.25.447.597.447.995-.05.349-.199.647-.447.946zm.1 8.806c-.497.199-.895.348-1.194.447-.298.1-.647.15-1.045.15-.597 0-1.045-.15-1.393-.448-.348-.299-.497-.647-.497-1.095 0-.199 0-.348.05-.547 0-.199.05-.398.099-.597l.597-2.189.15-.597c.049-.199.049-.348.049-.498 0-.298-.05-.447-.199-.597-.1-.099-.348-.149-.647-.149-.15 0-.348 0-.497.05l-.448.15.15-.648c.397-.149.795-.298 1.143-.447.349-.1.697-.2 1.045-.2.597 0 1.045.15 1.393.448.299.299.498.647.498 1.095 0 .1 0 .249-.05.498 0 .248-.05.447-.1.646l-.596 2.19-.15.596c-.05.2-.05.398-.05.498 0 .298.05.497.2.597.149.1.348.15.697.15.148 0 .298-.05.497-.1s.348-.1.398-.15l-.1.747zM12 2C6.478 2 2 6.478 2 12s4.478 10 10 10 10-4.478 10-10S17.522 2 12 2z"/>
    </g>
</svg>
